<svg xmlns="http://www.w3.org/2000/svg" version="1.1" xmlns:xlink="http://www.w3.org/1999/xlink" xmlns:svgjs="http://svgjs.dev/svgjs" width="1000" height="1125" viewBox="0 0 1000 1125"><g transform="matrix(1,0,0,1,0,0)"><svg viewBox="0 0 320 360" data-background-color="#111111" preserveAspectRatio="xMidYMid meet" height="1125" width="1000" xmlns="http://www.w3.org/2000/svg" xmlns:xlink="http://www.w3.org/1999/xlink"><g id="tight-bounds" transform="matrix(1,0,0,1,0,0)"><svg viewBox="0 0 320 360" height="360" width="320"><rect width="320" height="360" fill="url(#2486708e-c602-4ecd-bc80-2697a8871a1f)" mask="url(#7d58c764-44b9-4a11-bcfc-2c89c99337a4)" data-fill-palette-color="tertiary"></rect><g><svg></svg></g><g><svg viewBox="0 0 320 360" height="360" width="320"><g><path xmlns="http://www.w3.org/2000/svg" d="M320 141.95l-19.957-19.957v-28.224l-53.812-53.812h-28.223l-19.958-19.957h-76.1l-19.957 19.957h-28.224l-53.812 53.812v28.224l-19.957 19.957v76.104l19.957 19.958v28.223l53.816 53.808h28.224l19.957 19.957h76.104l19.958-19.957h28.223l53.812-53.812v-28.224l19.949-19.957zM244.374 44.437l51.189 51.189v21.887l-73.076-73.076zM295.563 123.849v112.306l-79.408 79.408h-112.306l-79.412-79.412v-112.302l79.412-79.412h112.306zM123.807 24.48h72.39l15.478 15.477h-103.346zM24.437 95.626l51.189-51.189h21.887l-73.076 73.076zM4.484 216.197v-72.394l15.477-15.478v103.342zM75.626 315.563l-51.189-51.189v-21.887l73.076 73.076zM196.197 335.52h-72.39l-15.478-15.477h103.342zM295.563 264.374l-51.189 51.189h-21.887l73.076-73.076zM315.52 216.197l-15.477 15.478v-103.346l15.477 15.478z" fill="url(#2486708e-c602-4ecd-bc80-2697a8871a1f)" fill-rule="nonzero" stroke="none" stroke-width="1" stroke-linecap="butt" stroke-linejoin="miter" stroke-miterlimit="10" stroke-dasharray="" stroke-dashoffset="0" font-family="none" font-weight="none" font-size="none" text-anchor="none" style="mix-blend-mode: normal" data-fill-palette-color="tertiary"></path></g><g transform="matrix(1,0,0,1,71.76337603617182,90)"><svg viewBox="0 0 176.47324792765636 180" height="180" width="176.47324792765636"><g><svg viewBox="0 0 176.47324792765636 180" height="180" width="176.47324792765636"><g><svg viewBox="0 0 176.47324792765636 180" height="180" width="176.47324792765636"><g id="textblocktransform"><svg viewBox="0 0 176.47324792765636 180" height="180" width="176.47324792765636" id="textblock"><g><svg viewBox="0 0 176.47324792765636 180" height="180" width="176.47324792765636"><g transform="matrix(1,0,0,1,0,0)"><svg width="176.47324792765636" viewBox="2.8600001335144043 -32.400001525878906 31.759998321533203 32.400001525878906" height="180" data-palette-color="#f47c14"><path d="M13.65 0L2.86 0 2.86-32.4 13.65-32.4 13.65 0ZM34.11-32.4L15.31-4.59 15.31-20.34 22.88-32.37 34.11-32.4ZM25.68-17.14L34.62 0 22.95 0 19.29-7.54 25.68-17.14Z" opacity="1" transform="matrix(1,0,0,1,0,0)" fill="#f47c14" class="wordmark-text-0" data-fill-palette-color="primary" id="text-0"></path></svg></g></svg></g></svg></g></svg></g></svg></g></svg></g></svg></g><defs></defs><mask id="7d58c764-44b9-4a11-bcfc-2c89c99337a4"><g id="SvgjsG1291"><svg viewBox="0 0 320 360" height="360" width="320"><g><svg></svg></g><g><svg viewBox="0 0 320 360" height="360" width="320"><g><path xmlns="http://www.w3.org/2000/svg" d="M320 141.95l-19.957-19.957v-28.224l-53.812-53.812h-28.223l-19.958-19.957h-76.1l-19.957 19.957h-28.224l-53.812 53.812v28.224l-19.957 19.957v76.104l19.957 19.958v28.223l53.816 53.808h28.224l19.957 19.957h76.104l19.958-19.957h28.223l53.812-53.812v-28.224l19.949-19.957zM244.374 44.437l51.189 51.189v21.887l-73.076-73.076zM295.563 123.849v112.306l-79.408 79.408h-112.306l-79.412-79.412v-112.302l79.412-79.412h112.306zM123.807 24.48h72.39l15.478 15.477h-103.346zM24.437 95.626l51.189-51.189h21.887l-73.076 73.076zM4.484 216.197v-72.394l15.477-15.478v103.342zM75.626 315.563l-51.189-51.189v-21.887l73.076 73.076zM196.197 335.52h-72.39l-15.478-15.477h103.342zM295.563 264.374l-51.189 51.189h-21.887l73.076-73.076zM315.52 216.197l-15.477 15.478v-103.346l15.477 15.478z" fill="white" fill-rule="nonzero" stroke="none" stroke-width="1" stroke-linecap="butt" stroke-linejoin="miter" stroke-miterlimit="10" stroke-dasharray="" stroke-dashoffset="0" font-family="none" font-weight="none" font-size="none" text-anchor="none" style="mix-blend-mode: normal"></path></g><g transform="matrix(1,0,0,1,71.76337603617182,90)"><svg viewBox="0 0 176.47324792765636 180" height="180" width="176.47324792765636"><g><svg viewBox="0 0 176.47324792765636 180" height="180" width="176.47324792765636"><g><svg viewBox="0 0 176.47324792765636 180" height="180" width="176.47324792765636"><g id="SvgjsG1290"><svg viewBox="0 0 176.47324792765636 180" height="180" width="176.47324792765636" id="SvgjsSvg1289"><g><svg viewBox="0 0 176.47324792765636 180" height="180" width="176.47324792765636"><g transform="matrix(1,0,0,1,0,0)"><svg width="176.47324792765636" viewBox="2.8600001335144043 -32.400001525878906 31.759998321533203 32.400001525878906" height="180" data-palette-color="#f47c14"></svg></g></svg></g></svg></g></svg></g></svg></g></svg></g></svg></g><defs><mask></mask></defs></svg></g></mask><linearGradient x1="0.054" x2="0.941" y1="0.5" y2="0.5" id="2486708e-c602-4ecd-bc80-2697a8871a1f"><stop stop-color="#0f3054" offset="0"></stop><stop stop-color="#3b8dcb" offset="0.498"></stop><stop stop-color="#0f3054" offset="1"></stop></linearGradient></svg><rect width="320" height="360" fill="none" stroke="none" visibility="hidden"></rect></g></svg></g></svg>